<?xml version="1.0" encoding="UTF-8" standalone="no"?>
<svg
   xmlns:dc="http://purl.org/dc/elements/1.1/"
   xmlns:cc="http://creativecommons.org/ns#"
   xmlns:rdf="http://www.w3.org/1999/02/22-rdf-syntax-ns#"
   xmlns:svg="http://www.w3.org/2000/svg"
   xmlns="http://www.w3.org/2000/svg"
   xmlns:xlink="http://www.w3.org/1999/xlink"
   xmlns:sodipodi="http://sodipodi.sourceforge.net/DTD/sodipodi-0.dtd"
   xmlns:inkscape="http://www.inkscape.org/namespaces/inkscape"
   version="1.1"
   id="Layer_1"
   x="0px"
   y="0px"
   width="176"
   height="176"
   viewBox="0 0 165 165"
   enable-background="new 0 0 1190.55 841.89"
   xml:space="preserve"
   inkscape:version="0.92.3 (2405546, 2018-03-11)"
   sodipodi:docname="bahk-logo-big.svg"><metadata
   id="metadata3036"><rdf:RDF><cc:Work
       rdf:about=""><dc:format>image/svg+xml</dc:format><dc:type
         rdf:resource="http://purl.org/dc/dcmitype/StillImage" /><dc:title /></cc:Work></rdf:RDF></metadata><defs
   id="defs3034" /><sodipodi:namedview
   pagecolor="#ffffff"
   bordercolor="#666666"
   borderopacity="1"
   objecttolerance="10"
   gridtolerance="10"
   guidetolerance="10"
   inkscape:pageopacity="0"
   inkscape:pageshadow="2"
   inkscape:window-width="1217"
   inkscape:window-height="757"
   id="namedview3032"
   showgrid="false"
   fit-margin-top="0"
   fit-margin-left="0"
   fit-margin-right="0"
   fit-margin-bottom="0"
   inkscape:zoom="5.8712567"
   inkscape:cx="65.381465"
   inkscape:cy="100.45038"
   inkscape:window-x="92"
   inkscape:window-y="1263"
   inkscape:window-maximized="0"
   inkscape:current-layer="Layer_1" />










































































































































<linearGradient
   id="SVGID_24_"
   gradientUnits="userSpaceOnUse"
   x1="706.96393"
   y1="368.14841"
   x2="751.36469"
   y2="414.88931">
	<stop
   offset="0"
   style="stop-color:#FFFFFF"
   id="stop2682" />
	<stop
   offset="0.4748"
   style="stop-color:#000000"
   id="stop2684" />
	<stop
   offset="0.7802"
   style="stop-color:#FFFFFF"
   id="stop2686" />
	<stop
   offset="0.9505"
   style="stop-color:#000000"
   id="stop2688" />
</linearGradient>


















<g
   id="g2722"
   transform="translate(-625.19601,-465.87401)">
	<path
   inkscape:connector-curvature="0"
   d="m 650.161,547.817 c 0.001,-16.113 6.723,-30.694 17.604,-41.263 10.883,-10.566 25.914,-17.104 42.529,-17.104 16.615,0 31.648,6.538 42.53,17.104 10.882,10.568 17.603,25.149 17.604,41.263 h 1.767 c 0,-16.61 -6.938,-31.653 -18.141,-42.53 -11.201,-10.878 -26.676,-17.604 -43.76,-17.604 -17.082,0 -32.559,6.726 -43.76,17.604 -11.203,10.877 -18.141,25.92 -18.139,42.53 z"
   id="path2724" />
</g><g
   id="g2726"
   transform="translate(-625.19601,-465.87401)">
	<defs
   id="defs2728">
		<ellipse
   id="SVGID_67_"
   cx="710.29498"
   cy="548.16901"
   rx="51.185001"
   ry="50.562" />
	</defs>
	<clipPath
   id="SVGID_26_">
		<use
   height="841.89001"
   width="1190.55"
   y="0"
   x="0"
   style="overflow:visible"
   xlink:href="#SVGID_67_"
   overflow="visible"
   id="use2732" />
	</clipPath>
	<g
   clip-path="url(#SVGID_26_)"
   id="g2734">
		<polyline
   points="683.713,504.25 709.216,548.098 709.896,547.709 684.394,503.861   "
   id="polyline2736" />
		<polyline
   points="687.872,502.092 709.2,548.066 709.913,547.74 688.585,501.767   "
   id="polyline2738" />
		<polyline
   points="691.827,500.459 709.187,548.035 709.927,547.771 692.565,500.195   "
   id="polyline2740" />
		<polyline
   points="696.425,499.021 709.177,548 709.937,547.806 697.185,498.826   "
   id="polyline2742" />
		<polyline
   points="679.923,506.676 709.235,548.127 709.878,547.68 680.567,506.229   "
   id="polyline2744" />
		<polyline
   points="676.38,509.404 709.255,548.154 709.856,547.652 676.981,508.902   "
   id="polyline2746" />
		<polyline
   points="659.058,539.599 709.489,548.287 709.624,547.52 659.192,538.83   "
   id="polyline2748" />
		<polyline
   points="660.064,534.972 709.452,548.279 709.659,547.527 660.269,534.221   "
   id="polyline2750" />
		<polyline
   points="661.37,530.811 709.421,548.27 709.69,547.537 661.641,530.08   "
   id="polyline2752" />
		<polyline
   points="663.251,526.33 709.386,548.255 709.726,547.551 663.59,525.627   "
   id="polyline2754" />
		<polyline
   points="665.173,522.71 709.358,548.24 709.753,547.567 665.567,522.037   "
   id="polyline2756" />
		<polyline
   points="667.688,518.815 709.329,548.221 709.784,547.586 668.144,518.181   "
   id="polyline2758" />
		<polyline
   points="670.302,515.459 709.302,548.201 709.81,547.605 670.812,514.863   "
   id="polyline2760" />
		<polyline
   points="673.146,512.369 709.278,548.179 709.833,547.628 673.7,511.818   "
   id="polyline2762" />
		<polyline
   points="700.489,498.135 709.169,547.97 709.942,547.837 701.263,498.004   "
   id="polyline2764" />
		<polyline
   points="704.824,497.375 709.165,547.937 709.947,547.869 705.606,497.31   "
   id="polyline2766" />
		<polyline
   points="709.163,497.342 709.163,547.902 709.948,547.902 709.948,497.342   "
   id="polyline2768" />
		<polyline
   points="658.339,543.947 709.522,548.291 709.59,547.516 658.405,543.17   "
   id="polyline2770" />
		<polyline
   points="658.372,548.293 709.556,548.293 709.556,547.514 658.372,547.514   "
   id="polyline2772" />
		<polyline
   points="734.72,503.861 709.216,547.709 709.896,548.098 735.399,504.25   "
   id="polyline2774" />
		<polyline
   points="730.526,501.767 709.2,547.74 709.913,548.066 731.24,502.092   "
   id="polyline2776" />
		<polyline
   points="726.547,500.195 709.187,547.771 709.927,548.035 727.285,500.459   "
   id="polyline2778" />
		<polyline
   points="721.928,498.826 709.177,547.806 709.937,548 722.688,499.021   "
   id="polyline2780" />
		<polyline
   points="738.546,506.229 709.235,547.68 709.878,548.127 739.188,506.676   "
   id="polyline2782" />
		<polyline
   points="742.132,508.902 709.255,547.652 709.856,548.154 742.733,509.404   "
   id="polyline2784" />
		<polyline
   points="759.921,538.83 709.489,547.52 709.624,548.287 760.056,539.599   "
   id="polyline2786" />
		<polyline
   points="758.844,534.221 709.452,547.527 709.659,548.279 759.049,534.972   "
   id="polyline2788" />
		<polyline
   points="757.472,530.08 709.421,547.537 709.69,548.27 757.743,530.811   "
   id="polyline2790" />
		<polyline
   points="755.522,525.627 709.386,547.551 709.726,548.255 755.862,526.33   "
   id="polyline2792" />
		<polyline
   points="753.544,522.037 709.358,547.567 709.753,548.24 753.939,522.71   "
   id="polyline2794" />
		<polyline
   points="750.97,518.181 709.329,547.586 709.784,548.221 751.427,518.815   "
   id="polyline2796" />
		<polyline
   points="748.302,514.863 709.302,547.605 709.81,548.201 748.81,515.459   "
   id="polyline2798" />
		<polyline
   points="745.413,511.818 709.278,547.628 709.833,548.179 745.968,512.369   "
   id="polyline2800" />
		<polyline
   points="717.851,498.004 709.169,547.837 709.942,547.97 718.624,498.135   "
   id="polyline2802" />
		<polyline
   points="713.505,497.31 709.165,547.869 709.947,547.937 714.287,497.375   "
   id="polyline2804" />
		<polyline
   points="760.708,543.17 709.522,547.516 709.59,548.291 760.774,543.947   "
   id="polyline2806" />
		<polyline
   points="760.741,547.514 709.556,547.514 709.556,548.293 760.741,548.293   "
   id="polyline2808" />
		<polyline
   points="684.394,591.945 709.896,548.098 709.216,547.709 683.713,591.557   "
   id="polyline2810" />
		<polyline
   points="688.585,594.04 709.913,548.066 709.2,547.74 687.872,593.715   "
   id="polyline2812" />
		<polyline
   points="692.565,595.612 709.927,548.035 709.187,547.771 691.827,595.347   "
   id="polyline2814" />
		<polyline
   points="697.185,596.98 709.937,548 709.177,547.806 696.425,596.785   "
   id="polyline2816" />
		<polyline
   points="680.567,589.578 709.878,548.127 709.235,547.68 679.923,589.131   "
   id="polyline2818" />
		<polyline
   points="676.981,586.903 709.856,548.154 709.255,547.652 676.38,586.402   "
   id="polyline2820" />
		<polyline
   points="659.192,556.976 709.624,548.287 709.489,547.52 659.058,556.208   "
   id="polyline2822" />
		<polyline
   points="660.269,561.586 709.659,548.279 709.452,547.527 660.064,560.834   "
   id="polyline2824" />
		<polyline
   points="661.641,565.727 709.69,548.27 709.421,547.537 661.37,564.994   "
   id="polyline2826" />
		<polyline
   points="663.59,570.178 709.726,548.255 709.386,547.551 663.251,569.475   "
   id="polyline2828" />
		<polyline
   points="665.567,573.77 709.753,548.24 709.358,547.567 665.173,573.096   "
   id="polyline2830" />
		<polyline
   points="668.144,577.626 709.784,548.221 709.329,547.586 667.688,576.991   "
   id="polyline2832" />
		<polyline
   points="670.812,580.943 709.81,548.201 709.302,547.605 670.302,580.348   "
   id="polyline2834" />
		<polyline
   points="673.7,583.988 709.833,548.179 709.278,547.628 673.146,583.437   "
   id="polyline2836" />
		<polyline
   points="701.263,597.803 709.942,547.97 709.169,547.837 700.489,597.67   "
   id="polyline2838" />
		<polyline
   points="705.606,598.497 709.947,547.937 709.165,547.869 704.824,598.432   "
   id="polyline2840" />
		<polyline
   points="709.948,598.463 709.948,547.902 709.163,547.902 709.163,598.463   "
   id="polyline2842" />
		<polyline
   points="658.405,552.635 709.59,548.291 709.522,547.516 658.339,551.859   "
   id="polyline2844" />
		<polyline
   points="735.399,591.557 709.896,547.709 709.216,548.098 734.72,591.945   "
   id="polyline2846" />
		<polyline
   points="731.24,593.715 709.913,547.74 709.2,548.066 730.526,594.04   "
   id="polyline2848" />
		<polyline
   points="727.285,595.347 709.927,547.771 709.187,548.035 726.547,595.612   "
   id="polyline2850" />
		<polyline
   points="722.688,596.785 709.937,547.806 709.177,548 721.928,596.98   "
   id="polyline2852" />
		<polyline
   points="739.188,589.131 709.878,547.68 709.235,548.127 738.546,589.578   "
   id="polyline2854" />
		<polyline
   points="742.733,586.402 709.856,547.652 709.255,548.154 742.132,586.903   "
   id="polyline2856" />
		<polyline
   points="760.056,556.208 709.624,547.52 709.489,548.287 759.921,556.976   "
   id="polyline2858" />
		<polyline
   points="759.049,560.834 709.659,547.527 709.452,548.279 758.844,561.586   "
   id="polyline2860" />
		<polyline
   points="757.743,564.994 709.69,547.537 709.421,548.27 757.472,565.727   "
   id="polyline2862" />
		<polyline
   points="755.862,569.475 709.726,547.551 709.386,548.255 755.522,570.178   "
   id="polyline2864" />
		<polyline
   points="753.939,573.096 709.753,547.567 709.358,548.24 753.544,573.77   "
   id="polyline2866" />
		<polyline
   points="751.427,576.991 709.784,547.586 709.329,548.221 750.97,577.626   "
   id="polyline2868" />
		<polyline
   points="748.81,580.348 709.81,547.605 709.302,548.201 748.302,580.943   "
   id="polyline2870" />
		<polyline
   points="745.968,583.437 709.833,547.628 709.278,548.179 745.413,583.988   "
   id="polyline2872" />
		<polyline
   points="718.624,597.67 709.942,547.837 709.169,547.97 717.851,597.803   "
   id="polyline2874" />
		<polyline
   points="714.287,598.432 709.947,547.869 709.165,547.937 713.505,598.497   "
   id="polyline2876" />
		<polyline
   points="760.774,551.859 709.59,547.516 709.522,548.291 760.708,552.635   "
   id="polyline2878" />
	</g>
</g><g
   id="g2880"
   transform="translate(-625.19601,-465.87401)">
	<path
   inkscape:connector-curvature="0"
   d="m 764.241,547.817 h -0.823 c 0,14.416 -5.919,27.462 -15.497,36.915 -9.579,9.45 -22.807,15.296 -37.428,15.297 -14.621,-10e-4 -27.848,-5.847 -37.428,-15.297 -9.578,-9.453 -15.498,-22.499 -15.498,-36.915 0,-14.418 5.92,-27.464 15.498,-36.917 9.58,-9.451 22.807,-15.296 37.428,-15.297 14.621,10e-4 27.849,5.846 37.428,15.297 9.578,9.453 15.497,22.499 15.497,36.917 h 0.823 0.823 c 0.001,-14.875 -6.111,-28.347 -15.985,-38.089 -9.877,-9.744 -23.523,-15.771 -38.586,-15.771 -15.063,0 -28.711,6.027 -38.586,15.771 -9.875,9.742 -15.986,23.214 -15.986,38.089 0,14.872 6.111,28.345 15.986,38.088 9.875,9.744 23.522,15.771 38.586,15.771 15.062,0 28.709,-6.026 38.586,-15.771 9.874,-9.743 15.986,-23.216 15.985,-38.088 z"
   id="path2882" />
	<path
   inkscape:connector-curvature="0"
   d="m 761.447,547.817 h -0.55 c 0,13.78 -5.658,26.251 -14.812,35.284 -9.155,9.032 -21.798,14.619 -35.769,14.619 -13.972,0 -26.615,-5.587 -35.771,-14.619 -9.152,-9.033 -14.812,-21.504 -14.812,-35.284 0,-13.782 5.659,-26.253 14.812,-35.286 9.155,-9.033 21.799,-14.617 35.771,-14.619 13.971,0.002 26.613,5.586 35.769,14.619 9.153,9.033 14.812,21.504 14.812,35.286 h 0.55 0.55 c 0,-14.085 -5.787,-26.841 -15.141,-36.067 -9.351,-9.229 -22.271,-14.936 -36.539,-14.936 -14.268,0 -27.189,5.707 -36.541,14.936 -9.353,9.227 -15.141,21.982 -15.141,36.067 0,14.084 5.788,26.839 15.141,36.065 9.352,9.228 22.273,14.936 36.541,14.936 14.268,0 27.188,-5.708 36.539,-14.936 9.354,-9.227 15.141,-21.981 15.141,-36.065 z"
   id="path2884" />
</g><g
   id="g2886"
   transform="translate(-625.19601,-465.87401)">
	<path
   style="fill:#ba2326;stroke:#ffffff"
   inkscape:connector-curvature="0"
   id="path574_16_"
   d="m 704.796,508.306 c 0,-0.027 -0.002,-0.06 -0.002,-0.086" />
	<path
   style="fill:#ba2326;stroke:#ffffff"
   inkscape:connector-curvature="0"
   id="path676_16_"
   d="m 738.522,524.35 c 0.027,-0.011 0.055,-0.021 0.083,-0.028" />
	<path
   style="fill:#ba2326;stroke:#ffffff"
   inkscape:connector-curvature="0"
   id="path681_16_"
   d="m 733.253,561.117 c 0.018,0.024 0.036,0.047 0.055,0.07" />
	<path
   style="fill:#ba2326;stroke:#ffffff"
   inkscape:connector-curvature="0"
   id="path686_16_"
   d="m 696.203,567.488 c -0.02,0.024 -0.038,0.048 -0.054,0.068" />
	<g
   id="g2892">
		<path
   style="fill:#0c101a"
   inkscape:connector-curvature="0"
   id="path573_15_"
   d="m 709.053,538.783 c 0,0 -20.369,-5.676 -16.851,-28.912 5.317,-22.443 23.171,-23.123 27.279,-23.566 -1.058,1.047 -1.94,2.09 -2.377,3.385 -0.859,2.326 -0.138,4.533 1.105,6.725 1.578,2.538 2.541,5.178 2.906,8.615 0.661,4.84 -1.311,9.557 -5.077,12.474 -2.382,1.922 -5.229,2.628 -7.522,4.812 -1.769,1.822 -2.842,3.626 -3.183,6.73 0.07,5.899 1.695,6.684 3.72,9.737 z" />
		<path
   style="fill:#0c101a"
   inkscape:connector-curvature="0"
   id="path675_15_"
   d="m 710.632,537.349 c 0,0 1.801,-20.532 22.706,-24.579 10.482,-0.694 18.511,1.547 24.729,8.352 2.406,3.359 4.169,7.023 5.796,10.822 -1.313,-0.705 -2.567,-1.242 -3.933,-1.283 -2.479,-0.135 -4.375,1.197 -6.107,3.031 -1.965,2.25 -4.203,3.945 -7.385,5.301 -4.435,2.051 -9.523,1.55 -13.414,-1.199 -2.535,-1.711 -4.045,-4.228 -6.805,-5.779 -2.26,-1.158 -4.303,-1.656 -7.367,-1.071 -5.623,1.792 -5.894,3.578 -8.22,6.405 z" />
		<path
   style="fill:#0c101a"
   inkscape:connector-curvature="0"
   id="path680_15_"
   d="m 712.067,538.8 c 0,0 20.043,-4.815 30.52,13.724 3.99,9.716 4.418,18.042 -0.066,26.102 -2.421,3.347 -5.332,6.182 -8.42,8.932 0.254,-1.469 0.365,-2.828 -0.031,-4.138 -0.656,-2.388 -2.525,-3.769 -4.814,-4.828 -2.76,-1.147 -5.076,-2.731 -7.373,-5.316 -3.35,-3.55 -4.494,-8.537 -3.125,-13.1 0.822,-2.952 2.729,-5.181 3.324,-8.288 0.381,-2.514 0.201,-4.604 -1.328,-7.33 -3.484,-4.761 -5.267,-4.453 -8.687,-5.758 z" />
		<path
   style="fill:#0c101a"
   inkscape:connector-curvature="0"
   id="path685_15_"
   d="m 711.669,540.889 c 0,0 10.252,17.879 -4.602,33.143 -8.206,6.555 -16.076,9.307 -25.068,7.271 -3.893,-1.391 -7.434,-3.387 -10.937,-5.582 1.479,-0.168 2.817,-0.441 3.962,-1.188 2.109,-1.304 2.904,-3.482 3.277,-5.975 0.331,-2.969 1.203,-5.641 3.037,-8.573 2.469,-4.21 6.932,-6.707 11.693,-6.677 3.062,-0.04 5.738,1.164 8.889,0.86 2.518,-0.337 4.477,-1.097 6.659,-3.325 3.595,-4.685 2.797,-6.302 3.09,-9.954 z" />
		<path
   style="fill:#0c101a"
   inkscape:connector-curvature="0"
   id="path690_15_"
   d="m 709.431,540.544 c 0,0 -13.463,15.609 -32.793,6.671 -8.909,-5.562 -14.116,-12.072 -15.188,-21.229 0.016,-4.134 0.725,-8.138 1.629,-12.172 0.649,1.339 1.354,2.513 2.441,3.343 1.928,1.56 4.25,1.586 6.727,1.107 2.91,-0.678 5.716,-0.743 9.088,0.016 4.799,0.93 8.631,4.309 10.186,8.812 1.055,2.875 0.807,5.797 2.141,8.67 1.156,2.26 2.522,3.855 5.352,5.174 5.611,1.83 6.874,0.543 10.417,-0.392 z" />
	</g>
	<path
   style="fill:#ba2326;stroke:#ffffff"
   inkscape:connector-curvature="0"
   id="path691_12_"
   d="m 679.202,534.791 c -0.031,-0.012 -0.059,-0.018 -0.087,-0.03" />
	<path
   style="fill:none;stroke:#ffffff"
   inkscape:connector-curvature="0"
   id="path687_2_"
   d="m 712.273,544.082 c 1.974,9.627 -8.376,22.35 -16.142,23.354" />
	<path
   style="fill:none;stroke:#ffffff"
   inkscape:connector-curvature="0"
   id="path692_2_"
   d="m 706.616,542.17 c -8.426,5.064 -23.863,-0.474 -27.393,-7.467" />
	<path
   style="fill:none;stroke:#ffffff;stroke-width:2"
   inkscape:connector-curvature="0"
   id="path575_40_"
   d="M 704.882,508.305" />
	<path
   style="fill:none;stroke:#ffffff;stroke-width:2"
   inkscape:connector-curvature="0"
   id="path575_4_"
   d="M 706.61,536.64" />
	<path
   style="fill:none;stroke:#ffffff"
   inkscape:connector-curvature="0"
   id="path682_2_"
   d="m 715.301,539.118 c 9.798,0.807 19.103,14.315 17.884,22.053" />
	<polygon
   style="fill:#ffffff"
   id="polygon683_2_"
   points="733.372,564.928 735.716,564.307 734.103,566.201 735.283,568.266 733.107,567.363 731.493,569.258 731.763,566.812 729.577,565.916 731.926,565.303 732.189,562.859 " />
</g><g
   id="g2906"
   transform="translate(-625.19601,-465.87401)">
	<path
   style="fill:#0c101a"
   inkscape:connector-curvature="0"
   d="m 777.892,547.7 h -2.016 c 0,8.996 -1.845,17.558 -5.183,25.349 -5.008,11.687 -13.382,21.639 -23.921,28.666 -10.542,7.027 -23.24,11.131 -36.93,11.133 -18.25,-0.002 -34.75,-7.297 -46.704,-19.091 -5.974,-5.897 -10.808,-12.919 -14.146,-20.708 -3.34,-7.791 -5.185,-16.353 -5.185,-25.349 0,-8.996 1.845,-17.558 5.185,-25.349 5.008,-11.686 13.379,-21.638 23.922,-28.666 10.541,-7.027 23.239,-11.131 36.928,-11.132 18.25,10e-4 34.75,7.296 46.703,19.091 5.975,5.896 10.809,12.916 14.147,20.707 3.338,7.791 5.183,16.353 5.183,25.349 h 2.017 2.014 c 0,-9.549 -1.962,-18.656 -5.511,-26.935 -5.323,-12.418 -14.207,-22.976 -25.388,-30.431 -11.18,-7.456 -24.666,-11.81 -39.164,-11.808 -19.334,-0.002 -36.857,7.738 -49.533,20.251 -6.337,6.257 -11.471,13.708 -15.018,21.987 -3.55,8.278 -5.512,17.386 -5.512,26.935 0,9.549 1.962,18.657 5.512,26.935 5.32,12.419 14.206,22.977 25.387,30.432 11.18,7.455 24.666,11.809 39.164,11.808 19.332,10e-4 36.856,-7.737 49.531,-20.251 6.34,-6.257 11.473,-13.709 15.021,-21.988 3.549,-8.277 5.511,-17.386 5.511,-26.935 z"
   id="path2908" />
</g><path
   style="fill:#f1f2f2"
   inkscape:connector-curvature="0"
   d="m 79.59799,41.99899 c 0,0 -3.588,2.958 -4.164,10.631 -0.577,7.672 1.207,10.924 1.207,10.924 l 0.723,-0.641 c 0,0 -1.615,-3.953 -1.248,-10.283 0.367,-6.331 3.482,-10.631 3.482,-10.631 z"
   id="path2910" /><path
   style="fill:#f1f2f2"
   inkscape:connector-curvature="0"
   d="m 113.21999,59.68699 c 0,0 -4.093,-2.204 -11.415,0.158 -7.323,2.36 -9.66,5.24 -9.66,5.24 l 0.866,0.428 c 0,0 3.05,-2.988 9.052,-5.038 5.999,-2.049 11.157,-0.788 11.157,-0.788 z"
   id="path2912" /><path
   style="fill:#f1f2f2"
   inkscape:connector-curvature="0"
   d="m 83.78699,37.08299 c 0,0 0.789,-0.082 0.922,-0.843 0.17,-0.972 -1.012,-1.489 -1.012,-1.489 l 0.416,-0.918 -0.553,-0.248 -0.416,0.918 -0.402,-0.18 0.412,-0.92 -0.559,-0.25 -0.414,0.92 -1.15,-0.517 -0.26,0.579 0.477,0.217 c 0,0 0.119,0.053 0.154,0.14 0.042,0.101 -0.008,0.181 -0.008,0.181 l -0.598,1.346 -0.563,1.25 c 0,0 -0.042,0.098 -0.129,0.145 -0.106,0.059 -0.17,0.023 -0.17,0.023 l -0.489,-0.22 -0.266,0.594 1.1,0.493 -0.422,0.944 0.564,0.253 0.42,-0.945 0.406,0.182 -0.42,0.945 0.547,0.246 0.424,-0.944 c 0,0 1.312,0.806 2.078,-0.183 0.808,-1.041 -0.089,-1.719 -0.089,-1.719 z m -1.336,-2.139 0.613,0.275 c 0,0 0.683,0.307 0.428,0.871 -0.238,0.523 -0.782,0.33 -0.782,0.33 l -0.767,-0.344 z m 0.522,3.049 c -0.408,0.662 -1.146,0.218 -1.146,0.218 l -0.699,-0.313 0.557,-1.242 0.699,0.312 c -10e-4,0 0.978,0.395 0.589,1.025 z"
   id="path2914" /><path
   style="fill:#f1f2f2"
   inkscape:connector-curvature="0"
   d="m 118.27999,62.25999 c 0,0 0.134,0.781 0.903,0.863 0.98,0.104 1.416,-1.11 1.416,-1.11 l 0.946,0.354 0.21,-0.567 -0.943,-0.354 0.151,-0.414 0.946,0.352 0.212,-0.574 -0.945,-0.353 0.438,-1.183 -0.595,-0.221 -0.185,0.49 c 0,0 -0.045,0.124 -0.129,0.165 -0.098,0.048 -0.182,0.003 -0.182,0.003 l -1.382,-0.508 -1.285,-0.478 c 0,0 -0.1,-0.036 -0.152,-0.119 -0.065,-0.101 -0.035,-0.168 -0.035,-0.168 l 0.187,-0.502 -0.61,-0.228 -0.418,1.131 -0.971,-0.356 -0.215,0.578 0.972,0.358 -0.154,0.415 -0.972,-0.355 -0.209,0.563 0.971,0.358 c 0,0 -0.716,1.364 0.321,2.063 1.09,0.735 1.709,-0.203 1.709,-0.203 z m 2.045,-1.476 -0.234,0.628 c 0,0 -0.261,0.703 -0.841,0.486 -0.538,-0.203 -0.381,-0.758 -0.381,-0.758 l 0.291,-0.788 z m -3.007,0.722 c -0.688,-0.361 -0.294,-1.129 -0.294,-1.129 l 0.267,-0.717 1.276,0.473 -0.266,0.718 c 0,0 -0.329,1.003 -0.983,0.655 z"
   id="path2916" /><path
   style="fill:#ffffff"
   inkscape:connector-curvature="0"
   d="m 109.81899,98.01899 c 0,0 -0.621,-4.609 -6.834,-9.146 -6.214,-4.537 -9.917,-4.738 -9.917,-4.738 l 0.162,0.952 c 0,0 4.21,0.714 9.396,4.365 5.183,3.651 7.193,8.567 7.193,8.567 z"
   id="path2918" /><path
   style="fill:#f1f2f2"
   inkscape:connector-curvature="0"
   d="m 109.94199,104.26299 c 0,0 -0.554,0.568 -0.169,1.238 0.491,0.855 1.73,0.495 1.73,0.495 l 0.269,0.972 0.582,-0.164 -0.266,-0.971 0.423,-0.119 0.272,0.97 0.59,-0.165 -0.271,-0.971 1.215,-0.341 -0.172,-0.611 -0.504,0.14 c 0,0 -0.126,0.035 -0.209,-0.009 -0.097,-0.05 -0.11,-0.146 -0.11,-0.146 l -0.401,-1.415 -0.367,-1.32 c 0,0 -0.029,-0.103 0.006,-0.193 0.043,-0.113 0.117,-0.128 0.117,-0.128 l 0.515,-0.145 -0.175,-0.625 -1.16,0.324 -0.281,-0.994 -0.596,0.166 0.283,0.996 -0.429,0.119 -0.282,-0.995 -0.579,0.163 0.28,0.994 c 0,0 -1.525,0.222 -1.48,1.473 0.046,1.314 1.169,1.262 1.169,1.262 z m 2.394,0.787 -0.646,0.182 c 0,0 -0.721,0.202 -0.886,-0.396 -0.153,-0.555 0.39,-0.753 0.39,-0.753 l 0.809,-0.228 z m -2.351,-2.008 c -0.11,-0.77 0.742,-0.901 0.742,-0.901 l 0.735,-0.207 0.368,1.312 -0.736,0.207 c 0,-0.001 -1.006,0.323 -1.109,-0.411 z"
   id="path2920" /><path
   style="fill:#ffffff"
   inkscape:connector-curvature="0"
   d="m 66.74199,100.96399 c 0,0 4.187,-2.022 6.568,-9.338 2.383,-7.316 1.423,-10.898 1.423,-10.898 l -0.854,0.451 c 0,0 0.63,4.223 -1.23,10.285 -1.86,6.062 -5.907,9.5 -5.907,9.5 z"
   id="path2922" /><path
   style="fill:#ffffff"
   inkscape:connector-curvature="0"
   d="m 61.19799,102.66799 c 0,0 -0.712,-0.351 -1.229,0.224 -0.659,0.732 0.067,1.8 0.067,1.8 l -0.842,0.556 0.338,0.504 0.84,-0.557 0.246,0.367 -0.838,0.561 0.34,0.508 0.84,-0.559 0.7,1.049 0.528,-0.353 -0.289,-0.437 c 0,0 -0.074,-0.109 -0.058,-0.202 0.019,-0.106 0.104,-0.149 0.104,-0.149 l 1.222,-0.82 1.141,-0.76 c 0,0 0.089,-0.061 0.186,-0.055 0.121,0.006 0.156,0.071 0.156,0.071 l 0.298,0.444 0.541,-0.361 -0.67,-1.001 0.858,-0.577 -0.344,-0.513 -0.857,0.577 -0.246,-0.369 0.857,-0.578 -0.334,-0.499 -0.859,0.575 c 0,0 -0.685,-1.381 -1.859,-0.95 -1.236,0.453 -0.837,1.504 -0.837,1.504 z m -0.004,2.52 -0.373,-0.559 c 0,0 -0.416,-0.621 0.1,-0.964 0.48,-0.319 0.838,0.136 0.838,0.136 l 0.467,0.697 z m 1.177,-2.859 c 0.697,-0.344 1.087,0.425 1.087,0.425 l 0.425,0.636 -1.132,0.758 -0.425,-0.636 c 0,0 -0.62,-0.855 0.045,-1.183 z"
   id="path2924" /><path
   style="fill:#f1f2f2"
   inkscape:connector-curvature="0"
   d="m 48.54299,61.68499 c 0,0 0.131,-0.783 -0.567,-1.114 -0.892,-0.423 -1.705,0.579 -1.705,0.579 l -0.774,-0.646 -0.385,0.467 0.772,0.646 -0.28,0.34 -0.777,-0.643 -0.391,0.471 0.777,0.645 -0.805,0.972 0.488,0.405 0.336,-0.402 c 0,0 0.082,-0.102 0.177,-0.111 0.106,-0.014 0.173,0.056 0.173,0.056 l 1.137,0.936 1.053,0.876 c 0,0 0.084,0.066 0.105,0.162 0.029,0.118 -0.023,0.171 -0.023,0.171 l -0.341,0.411 0.501,0.416 0.768,-0.928 0.799,0.656 0.394,-0.476 -0.798,-0.656 0.283,-0.343 0.799,0.656 0.383,-0.463 -0.797,-0.658 c 0,0 1.127,-1.05 0.378,-2.053 -0.789,-1.054 -1.68,-0.372 -1.68,-0.372 z m -2.419,0.716 0.429,-0.517 c 0,0 0.477,-0.577 0.953,-0.181 0.443,0.369 0.109,0.842 0.109,0.842 l -0.535,0.646 z m 3.078,0.312 c 0.528,0.569 -0.097,1.163 -0.097,1.163 l -0.488,0.59 -1.049,-0.869 0.488,-0.589 c 10e-4,0 0.643,-0.839 1.146,-0.295 z"
   id="path2926" /><g
   id="g2928"
   transform="translate(-625.19601,-465.87401)">
	<polygon
   style="fill:#0c101a"
   points="783.214,569.492 627.196,569.492 627.196,528.213 645.954,520.931 647.32,522.295 631.683,528.213 787.103,528.213 787.103,569.935 772.144,575.408 772.476,573.082 "
   id="polygon2930" />
</g><g
   id="g2952"
   transform="translate(-625.19601,-465.87401)">
	<path
   inkscape:connector-curvature="0"
   d="m 662.651,578.589 c 0.524,0.791 0.355,1.355 -0.393,1.85 l -0.24,0.16 c -0.537,0.355 -0.973,0.426 -1.404,0.074 0.19,0.584 -0.077,1.033 -0.637,1.404 l -0.428,0.285 c -0.763,0.504 -1.438,0.418 -1.962,-0.373 l -0.775,-1.17 5.084,-3.371 z m -4.547,3.058 c 0.275,0.414 0.617,0.457 1.089,0.145 l 0.451,-0.299 c 0.566,-0.375 0.605,-0.725 0.283,-1.211 l -0.328,-0.494 -1.896,1.256 z m 2.299,-1.765 c 0.299,0.449 0.599,0.586 1.128,0.234 l 0.299,-0.197 c 0.45,-0.299 0.565,-0.596 0.297,-1.002 l -0.371,-0.561 -1.641,1.09 z"
   id="path2954" />
	<path
   inkscape:connector-curvature="0"
   d="m 664.653,581.407 -4.888,3.65 -0.405,-0.545 4.886,-3.65 z"
   id="path2956" />
	<path
   inkscape:connector-curvature="0"
   d="m 661.4,587.136 4.213,-3.5 -0.718,-0.865 0.476,-0.395 1.87,2.252 -0.476,0.395 -0.718,-0.865 -4.215,3.5 z"
   id="path2958" />
	<path
   inkscape:connector-curvature="0"
   d="m 668.809,588.454 -0.396,0.379 -0.445,-0.467 0.422,-0.404 c 0.397,-0.379 0.487,-0.764 0.145,-1.123 -0.337,-0.354 -0.732,-0.289 -1.131,0.09 l -2.333,2.223 c -0.396,0.379 -0.479,0.771 -0.144,1.125 0.343,0.359 0.732,0.289 1.13,-0.09 l 0.573,-0.547 0.445,0.467 -0.549,0.521 c -0.668,0.639 -1.41,0.744 -2.06,0.062 -0.644,-0.674 -0.503,-1.41 0.167,-2.049 l 2.282,-2.174 c 0.669,-0.639 1.411,-0.744 2.055,-0.068 0.647,0.682 0.507,1.416 -0.161,2.055 z"
   id="path2960" />
	<path
   inkscape:connector-curvature="0"
   d="m 669.787,589.411 c 0.626,-0.689 1.372,-0.824 2.062,-0.197 0.695,0.633 0.633,1.389 0.006,2.078 l -2.121,2.334 c -0.622,0.682 -1.373,0.822 -2.07,0.189 -0.689,-0.627 -0.62,-1.389 10e-4,-2.07 z m -1.648,2.811 c -0.375,0.412 -0.418,0.809 -0.058,1.137 0.368,0.334 0.752,0.248 1.127,-0.164 l 2.168,-2.385 c 0.369,-0.406 0.425,-0.805 0.057,-1.139 -0.36,-0.328 -0.758,-0.24 -1.126,0.166 z"
   id="path2962" />
	<path
   inkscape:connector-curvature="0"
   d="m 674.445,591.513 -3.857,4.729 -0.527,-0.43 3.857,-4.73 z"
   id="path2964" />
	<path
   inkscape:connector-curvature="0"
   d="m 672.46,597.7 -0.492,-0.359 3.585,-4.936 0.697,0.506 -1.448,4.398 2.591,-3.568 0.486,0.354 -3.584,4.938 -0.571,-0.416 1.635,-4.908 z"
   id="path2966" />
	<path
   inkscape:connector-curvature="0"
   d="m 681.045,599.618 c -0.252,0.439 -0.812,0.59 -1.25,0.338 -0.438,-0.252 -0.59,-0.811 -0.338,-1.25 0.251,-0.438 0.812,-0.59 1.25,-0.338 0.438,0.252 0.59,0.813 0.338,1.25 z"
   id="path2968" />
	<path
   inkscape:connector-curvature="0"
   d="m 684.504,603.405 -0.711,1.029 -0.574,-0.254 3.533,-5.107 0.9,0.396 -1.396,6.053 -0.622,-0.273 0.281,-1.221 z m 0.317,-0.498 1.243,0.549 0.793,-3.498 z"
   id="path2970" />
	<path
   inkscape:connector-curvature="0"
   d="m 691.856,602.657 -0.057,0.156 -0.605,-0.219 0.067,-0.188 c 0.186,-0.518 0.098,-0.891 -0.362,-1.057 -0.459,-0.164 -0.765,0.068 -0.946,0.578 -0.462,1.287 1.421,2.1 0.842,3.715 -0.311,0.869 -0.932,1.285 -1.809,0.971 -0.878,-0.314 -1.085,-1.027 -0.773,-1.896 l 0.118,-0.328 0.598,0.215 -0.129,0.361 c -0.186,0.516 -0.081,0.896 0.379,1.061 0.459,0.164 0.781,-0.062 0.966,-0.578 0.458,-1.279 -1.416,-2.09 -0.838,-3.705 0.317,-0.887 0.925,-1.287 1.785,-0.98 0.869,0.312 1.077,1.025 0.764,1.894 z"
   id="path2972" />
	<path
   inkscape:connector-curvature="0"
   d="m 695.731,603.798 -0.045,0.16 -0.621,-0.176 0.054,-0.193 c 0.149,-0.529 0.037,-0.895 -0.432,-1.027 -0.471,-0.133 -0.76,0.119 -0.907,0.641 -0.372,1.316 1.562,1.998 1.097,3.65 -0.252,0.889 -0.844,1.348 -1.741,1.094 -0.897,-0.254 -1.152,-0.951 -0.901,-1.84 l 0.096,-0.336 0.611,0.174 -0.104,0.367 c -0.149,0.529 -0.02,0.902 0.449,1.033 0.471,0.135 0.776,-0.115 0.926,-0.643 0.37,-1.309 -1.558,-1.99 -1.09,-3.641 0.256,-0.906 0.834,-1.35 1.715,-1.102 0.89,0.253 1.144,0.95 0.893,1.839 z"
   id="path2974" />
	<path
   inkscape:connector-curvature="0"
   d="m 697.031,604.13 c 0.19,-0.914 0.767,-1.406 1.68,-1.217 0.921,0.193 1.25,0.877 1.06,1.791 l -0.647,3.088 c -0.19,0.904 -0.768,1.406 -1.688,1.213 -0.913,-0.191 -1.24,-0.883 -1.05,-1.787 z m 0.003,3.26 c -0.114,0.547 0.05,0.91 0.527,1.01 0.485,0.102 0.775,-0.166 0.889,-0.713 l 0.661,-3.156 c 0.113,-0.539 -0.041,-0.908 -0.527,-1.012 -0.479,-0.1 -0.775,0.178 -0.89,0.715 z"
   id="path2976" />
	<path
   inkscape:connector-curvature="0"
   d="m 703.863,605.304 -0.073,0.545 -0.64,-0.086 0.078,-0.58 c 0.074,-0.543 -0.098,-0.902 -0.59,-0.969 -0.483,-0.064 -0.753,0.232 -0.827,0.777 l -0.433,3.197 c -0.075,0.545 0.105,0.902 0.591,0.969 0.49,0.066 0.752,-0.232 0.825,-0.777 l 0.107,-0.785 0.64,0.086 -0.103,0.752 c -0.124,0.916 -0.638,1.463 -1.571,1.336 -0.925,-0.125 -1.274,-0.789 -1.151,-1.705 l 0.425,-3.129 c 0.124,-0.914 0.639,-1.461 1.562,-1.336 0.935,0.127 1.285,0.791 1.16,1.705 z"
   id="path2978" />
	<path
   inkscape:connector-curvature="0"
   d="m 706.093,604.022 -0.497,6.08 -0.678,-0.057 0.497,-6.08 z"
   id="path2980" />
	<path
   inkscape:connector-curvature="0"
   d="m 708.091,609.015 -0.265,1.223 -0.629,-0.016 1.314,-6.07 0.985,0.023 1.021,6.127 -0.679,-0.016 -0.206,-1.234 z m 0.099,-0.582 1.36,0.033 -0.604,-3.537 z"
   id="path2982" />
	<path
   inkscape:connector-curvature="0"
   d="m 713.065,610.224 -0.264,-5.48 -1.125,0.055 -0.029,-0.619 2.927,-0.141 0.03,0.617 -1.124,0.055 0.265,5.48 z"
   id="path2984" />
	<path
   inkscape:connector-curvature="0"
   d="m 716.439,603.858 0.607,6.068 -0.677,0.068 -0.608,-6.068 z"
   id="path2986" />
	<path
   inkscape:connector-curvature="0"
   d="m 718.035,605.161 c -0.143,-0.922 0.222,-1.588 1.144,-1.73 0.931,-0.145 1.479,0.379 1.623,1.301 l 0.483,3.119 c 0.142,0.914 -0.222,1.588 -1.152,1.732 -0.922,0.143 -1.473,-0.389 -1.614,-1.303 z m 1.153,3.051 c 0.086,0.551 0.368,0.834 0.851,0.76 0.491,-0.076 0.666,-0.43 0.58,-0.982 l -0.494,-3.188 c -0.084,-0.543 -0.358,-0.836 -0.851,-0.76 -0.482,0.076 -0.664,0.439 -0.58,0.982 z"
   id="path2988" />
	<path
   inkscape:connector-curvature="0"
   d="m 723.835,608.839 -0.593,0.137 -1.365,-5.947 0.84,-0.191 2.363,3.98 -0.987,-4.297 0.586,-0.135 1.365,5.945 -0.688,0.158 -2.625,-4.459 z"
   id="path2990" />
	<path
   inkscape:connector-curvature="0"
   d="m 730.942,603.64 c 0.163,0.479 -0.092,0.998 -0.57,1.16 -0.479,0.164 -0.998,-0.092 -1.161,-0.57 -0.163,-0.477 0.093,-0.996 0.57,-1.16 0.477,-0.164 0.998,0.091 1.161,0.57 z"
   id="path2992" />
	<path
   inkscape:connector-curvature="0"
   d="m 735.427,602.159 1.149,2.492 -0.617,0.285 -2.554,-5.541 0.616,-0.285 1.149,2.494 1.361,-0.627 -1.149,-2.494 0.618,-0.283 2.553,5.539 -0.616,0.285 -1.149,-2.494 z"
   id="path2994" />
	<path
   inkscape:connector-curvature="0"
   d="m 737.911,598.882 c -0.448,-0.816 -0.334,-1.564 0.481,-2.014 0.825,-0.453 1.519,-0.15 1.968,0.666 l 1.521,2.764 c 0.445,0.809 0.334,1.566 -0.49,2.02 -0.817,0.449 -1.515,0.137 -1.961,-0.672 z m 2.124,2.471 c 0.268,0.488 0.63,0.656 1.057,0.422 0.436,-0.238 0.479,-0.631 0.211,-1.119 l -1.554,-2.824 c -0.265,-0.48 -0.623,-0.66 -1.058,-0.422 -0.428,0.236 -0.474,0.639 -0.209,1.119 z"
   id="path2996" />
	<path
   inkscape:connector-curvature="0"
   d="m 744.604,600.358 -0.512,0.332 -3.308,-5.127 0.726,-0.467 3.575,2.939 -2.389,-3.705 0.506,-0.326 3.305,5.125 -0.593,0.383 -3.983,-3.299 z"
   id="path2998" />
	<path
   inkscape:connector-curvature="0"
   d="m 747.381,592.759 0.314,0.418 -0.517,0.389 -0.334,-0.447 c -0.331,-0.439 -0.703,-0.574 -1.102,-0.275 -0.392,0.293 -0.372,0.693 -0.043,1.133 l 1.937,2.582 c 0.33,0.439 0.711,0.566 1.102,0.273 0.397,-0.299 0.373,-0.693 0.042,-1.133 l -0.732,-0.977 -0.503,0.377 -0.366,-0.488 1.019,-0.764 1.079,1.436 c 0.555,0.74 0.572,1.49 -0.182,2.055 -0.746,0.561 -1.461,0.334 -2.016,-0.404 l -1.896,-2.525 c -0.554,-0.74 -0.572,-1.488 0.174,-2.049 0.754,-0.568 1.469,-0.341 2.024,0.399 z"
   id="path3000" />
	<path
   inkscape:connector-curvature="0"
   d="m 752.277,591.165 0.148,0.684 1.398,1.5 -0.498,0.463 -4.163,-4.465 0.498,-0.463 2.01,2.154 -0.823,-3.262 0.505,-0.469 0.767,3.086 3.433,1.344 -0.509,0.475 z"
   id="path3002" />
	<path
   inkscape:connector-curvature="0"
   d="m 753.23,587.505 c -0.684,-0.637 -0.808,-1.385 -0.171,-2.066 0.642,-0.689 1.396,-0.617 2.079,0.02 l 2.309,2.152 c 0.676,0.631 0.807,1.385 0.164,2.074 -0.636,0.682 -1.397,0.604 -2.073,-0.027 z m 2.791,1.685 c 0.408,0.381 0.805,0.428 1.137,0.07 0.34,-0.361 0.259,-0.748 -0.15,-1.129 l -2.358,-2.199 c -0.401,-0.375 -0.798,-0.436 -1.138,-0.072 -0.333,0.357 -0.251,0.756 0.151,1.129 z"
   id="path3004" />
	<path
   inkscape:connector-curvature="0"
   d="m 760.063,586.815 -0.383,0.473 -4.738,-3.838 0.541,-0.67 4.314,1.678 -3.425,-2.773 0.379,-0.467 4.736,3.838 -0.443,0.547 -4.812,-1.891 z"
   id="path3006" />
	<path
   inkscape:connector-curvature="0"
   d="m 760.327,578.743 0.429,0.299 -0.37,0.529 -0.457,-0.32 c -0.449,-0.314 -0.845,-0.326 -1.13,0.082 -0.279,0.398 -0.138,0.773 0.312,1.088 l 2.641,1.848 c 0.451,0.314 0.852,0.318 1.132,-0.08 0.285,-0.408 0.139,-0.775 -0.312,-1.09 l -0.999,-0.699 -0.358,0.514 -0.501,-0.35 0.729,-1.043 1.47,1.029 c 0.758,0.529 1.007,1.236 0.468,2.008 -0.533,0.764 -1.283,0.77 -2.04,0.242 l -2.584,-1.809 c -0.758,-0.529 -1.008,-1.236 -0.473,-2 0.537,-0.771 1.286,-0.777 2.043,-0.248 z"
   id="path3008" />
</g>

<text
   xml:space="preserve"
   style="font-style:normal;font-variant:normal;font-weight:normal;font-stretch:normal;font-size:12.23295879px;line-height:0%;font-family:OpenSymbol;-inkscape-font-specification:'OpenSymbol, Normal';text-align:start;letter-spacing:0px;word-spacing:0px;writing-mode:lr-tb;text-anchor:start;fill:#ffffff;fill-opacity:1;stroke:none;stroke-width:1.01941323px;stroke-linecap:butt;stroke-linejoin:miter;stroke-opacity:1"
   x="20.571194"
   y="91.731483"
   id="text5692"><tspan
     sodipodi:role="line"
     id="tspan5694"
     x="20.571194"
     y="91.731483"
     style="font-style:normal;font-variant:normal;font-weight:500;font-stretch:normal;font-size:25.0699749px;line-height:125%;font-family:gargi;-inkscape-font-specification:'gargi, Medium';text-align:start;writing-mode:lr-tb;text-anchor:start;fill:#ffffff;stroke-width:1.01941323px">香港比特幣</tspan></text>

</svg>